<svg width="283" height="86" viewBox="0 0 283 86" fill="none" xmlns="http://www.w3.org/2000/svg">
<path d="M23.7158 44.1246L29.8904 44.1273V38.8646L36.4278 32.326H44.9491V22.8913H35.5158L35.5144 31.4126L28.9744 37.9513H23.7158V44.1246ZM20.9944 24.386V21.918L18.5251 21.9193V23.814L16.4171 25.9233L12.4838 25.9246L12.4824 30.4273H16.9878L16.9904 26.4953L19.0971 24.386H20.9944ZM59.5758 49.2753L62.5491 46.3006H65.2211V42.8233H61.7438V45.4953L58.7691 48.4686L53.2251 48.4713V54.818L59.5758 54.8166V49.2753ZM68.2931 63.0606V56.7126H61.9464L61.9438 62.2566L58.9704 65.23H56.2984V68.7086H59.7798V66.0353L62.7504 63.062L68.2931 63.0606ZM10.4504 43.0473L8.0531 45.442H5.89844V48.2486L8.70377 48.2473V46.0926L11.1024 43.6953H15.5691V38.5753H10.4518L10.4504 43.0473ZM30.0171 59.9406L26.6491 63.31H20.3691V70.502H27.5598L27.5624 64.2233L30.9331 60.8513H33.9571L33.9584 56.9126H30.0171V59.9406ZM41.6531 63.1926L38.2838 66.5606H35.2598L35.2571 70.502H39.1984V67.474L42.5664 64.1046H48.8464V56.9126H41.6558L41.6531 63.1926ZM57.9304 36.9073L50.3651 36.91V43.5593L46.9371 46.9886H41.6771V53.1633H47.8504V47.902L51.2784 44.474H57.9304V36.9073ZM45.6651 43.5953V36.958L49.7331 32.89H56.8984V24.8086L48.8211 24.81V31.9753L44.7504 36.046H38.1131V42.6793L34.1891 46.6086H30.3278L30.3251 51.3846H35.1011V47.5206L39.0278 43.5953H45.6651ZM29.6291 8.92462H27.9624V10.5926H29.6291V8.92462ZM26.6678 14.7313H22.5344V18.8633L26.6678 18.862V14.7313ZM21.4211 10.546H18.3558V13.6113H21.4211V10.546ZM65.9278 69.138H68.7438V66.3206H65.9278V69.138ZM20.9984 46.6406H18.1838V49.4553H20.9984V46.6406ZM28.1184 32.102H25.3051V34.9153H28.1184V32.102ZM35.6531 12.9233H29.8638V18.7153H35.6531V12.9233ZM50.6824 15.6126H45.0758V21.218H50.6824V15.6126ZM31.7331 21.95H24.3144V29.37L31.7331 29.3686V21.95ZM68.7211 36.6593L64.9931 36.662V40.3873L68.7211 40.386V36.6593ZM62.2211 29.3753L59.2251 29.3766L59.2238 32.3726H62.2211V29.3753ZM42.3651 15.7713H38.7104V19.426L42.3651 19.4246V15.7713ZM20.7118 33.5526H17.6158V36.6473H20.7118V33.5526ZM56.8118 58.714H53.7184L53.7158 61.8113H56.8144L56.8118 58.714Z" fill="#101828"/>
<path d="M82.8206 64.0026H78.8672V60.048H82.8206V64.0026ZM76.8472 46.0266H74.7059V43.8853L76.8472 43.884V46.0266ZM69.0566 25.9906H65.2673V22.2026H69.0566V25.9906ZM58.8112 15.636H56.6072V13.4346H58.8112V15.636ZM93.2486 55.8106C88.2339 51.0093 91.9472 50.984 92.0459 48.0266C92.1472 45.0706 89.6713 44.5186 89.6713 44.5186C90.7419 42.0026 90.8753 41.4213 90.8753 41.4213C88.6019 39.684 88.2006 37.5413 88.2006 37.5413C90.4726 34.0653 92.0726 30.072 92.0726 30.072C92.0726 30.072 77.0553 25.2613 71.3873 21.6266C69.2486 20.7386 69.7832 17.4333 69.7832 17.4333C55.0712 -1.42536 33.0312 8.07063 33.0312 8.07063V8.60663C33.0312 8.60663 34.7059 8.80663 37.3659 9.55197L41.0566 9.55463V10.7626C42.4086 11.2706 43.8739 11.8893 45.4099 12.644H54.1032L54.1006 18.1573C55.0446 18.912 55.9846 19.7253 56.9126 20.6013H61.7139L61.7152 25.912C62.9006 27.4493 64.0379 29.1213 65.1019 30.944C65.7606 31.9746 66.3699 33.004 66.9433 34.0373H71.2552V40.0946L74.7059 40.0973V43.8853L72.9779 43.908C72.9779 43.908 72.9966 47.9533 72.9979 49.9053L68.4059 49.9066V54.5693H73.0699V50.028H77.7393V58.8453H74.2619C75.1192 71.1706 72.0592 80.0293 72.0592 80.0293C73.9326 74.812 78.8806 70.4653 85.6606 68.0333C92.0446 65.7466 98.2659 60.612 93.2486 55.8106Z" fill="#101828"/>
<path d="M119.57 19.4155H133.305V59.9248H119.57V19.4155Z" fill="#101828"/>
<path d="M172.664 43.3455L184.675 46.6602C183.867 49.7389 182.596 52.3082 180.862 54.3709C179.128 56.4335 176.975 57.9895 174.404 59.0402C171.832 60.0909 168.56 60.6162 164.587 60.6162C159.767 60.6162 155.83 59.9762 152.774 58.6975C149.718 57.4175 147.082 55.1669 144.862 51.9442C142.643 48.7229 141.535 44.5989 141.535 39.5735C141.535 32.8722 143.486 27.7215 147.388 24.1229C151.292 20.5242 156.812 18.7242 163.952 18.7242C169.538 18.7242 173.93 19.7562 177.127 21.8189C180.323 23.8829 182.698 27.0509 184.251 31.3242L172.15 33.7842C171.727 32.5495 171.283 31.6482 170.819 31.0762C170.052 30.1189 169.115 29.3815 168.006 28.8669C166.896 28.3509 165.655 28.0922 164.284 28.0922C161.179 28.0922 158.799 29.2335 157.144 31.5149C155.895 33.2069 155.27 35.8669 155.27 39.4895C155.27 43.9815 156.016 47.0575 157.508 48.7229C159 50.3869 161.098 51.2202 163.802 51.2202C166.422 51.2202 168.404 50.5482 169.746 49.2042C171.086 47.8589 172.059 45.9055 172.664 43.3455Z" fill="#101828"/>
<path d="M191.328 19.4155H205.032V49.9501H226.42V59.9248H191.328V19.4155Z" fill="#101828"/>
<path d="M246.601 35.8288H252.379C253.004 35.8288 254.215 35.6448 256.009 35.2768C256.916 35.1115 257.659 34.6875 258.233 34.0048C258.808 33.3248 259.095 32.5408 259.095 31.6555C259.095 30.3488 258.641 29.3461 257.735 28.6448C256.827 27.9448 255.123 27.5941 252.621 27.5941H246.601V35.8288ZM232.836 59.9248V19.4155H255.677C259.912 19.4155 263.149 19.7461 265.388 20.4101C267.627 21.0728 269.431 22.3021 270.803 24.0995C272.175 25.8955 272.86 28.0821 272.86 30.6608C272.86 32.9101 272.336 34.8488 271.287 36.4781C270.237 38.1088 268.793 39.4315 266.957 40.4448C265.788 41.0888 264.183 41.6235 262.144 42.0461C263.777 42.5448 264.965 43.0421 265.712 43.5395C266.216 43.8715 266.947 44.5821 267.904 45.6701C268.86 46.7568 269.501 47.5968 269.823 48.1875L276.46 59.9248H260.975L253.649 47.5461C252.723 45.9421 251.896 44.9035 251.169 44.4235C250.181 43.7968 249.061 43.4835 247.811 43.4835H246.601V59.9248H232.836Z" fill="#101828"/>
<path d="M277.168 66.0918H119.335C118.967 66.0918 118.668 65.7931 118.668 65.4251C118.668 65.0571 118.967 64.7585 119.335 64.7585H277.168C277.536 64.7585 277.835 65.0571 277.835 65.4251C277.835 65.7931 277.536 66.0918 277.168 66.0918Z" fill="#101828"/>
</svg>
